#!OML:ASF X:\für Bonn\!DataBase\2005_08_12_Daniel\c3d\Daniel.ASF
:FULLY-SPECIFIED
:DEGREES
92
root 1.22776 16.4818 0.171328 -40.3552 -86.2085 33.0553
lowerback 24.3206 -2.60061 2.23819
upperback 4.89403 -3.37854 -2.04564
thorax -8.36724 -1.83884 -2.46723
lowerneck -0.222769 1.34029 1.29159
upperneck -12.7862 0.76258 -7.09365
head -4.14278 0.483995 -2.64908
rclavicle -5.2181e-015 2.18663e-015
rhumerus -212.863 -195.003 77.8609
rradius 74.0689
rwrist 20.9
rhand -18.8793 1.69433
rfingers 7.12502
rthumb 7.42165 -28.1555
lclavicle -5.2181e-015 2.18663e-015
lhumerus -199.605 207.85 -77.6583
lradius 66.1268
lwrist 34.2541
lhand -30.8277 371.804
lfingers 7.12502
lthumb -4.11678 41.7437
rfemur -11.6437 -1.11249 11.7038
rtibia 47.4049
rfoot -29.8842 -10.6498
rtoes -11.0232
lfemur -18.974 -9.44034 -17.907
ltibia 50.9242
lfoot -26.7301 -0.391719
ltoes 0.921148
93
root 1.20152 16.4631 0.185716 -40.2215 -86.0949 32.4462
lowerback 24.0384 -2.50169 2.27639
upperback 4.94546 -3.24475 -2.04616
thorax -8.15737 -1.77434 -2.54152
lowerneck 0.473594 1.13752 0.997598
upperneck -12.7731 0.511624 -6.87023
head -4.2857 0.383159 -2.52072
rclavicle -2.74323e-014 3.77691e-015
rhumerus -210.262 -195.757 78.0793
rradius 74.3225
rwrist 21.1239
rhand -20.5526 2.20815
rfingers 7.12502
rthumb 5.80635 -27.6923
lclavicle -2.74323e-014 3.77691e-015
lhumerus -197.162 208.447 -78.1614
lradius 66.4816
lwrist 33.6677
lhand -30.8846 371.395
lfingers 7.12502
lthumb -4.17174 41.3341
rfemur -11.2474 -1.25967 11.5221
rtibia 47.8418
rfoot -29.7919 -10.4425
rtoes -11.1081
lfemur -18.4845 -9.36958 -18.0828
ltibia 51.1269
lfoot -26.8549 -0.573887
ltoes 1.03343
94
root 1.17574 16.4454 0.200895 -40.2911 -85.9979 32.0494
lowerback 23.7334 -2.39029 2.32836
upperback 4.98897 -3.09161 -2.05132
thorax -7.9439 -1.70028 -2.63416
lowerneck 1.27145 0.925986 0.733162
upperneck -12.791 0.241356 -6.6679
head -4.46127 0.27407 -2.40499
rclavicle -1.98785e-016 -2.80286e-014
rhumerus -207.489 -196.505 78.43
rradius 74.6406
rwrist 21.4885
rhand -22.3662 2.60587
rfingers 7.12502
rthumb 4.05519 -27.3353
lclavicle -1.98785e-016 -2.80286e-014
lhumerus -194.672 209.044 -78.7066
lradius 67.0348
lwrist 33.1088
lhand -30.9654 370.997
lfingers 7.12502
lthumb -4.24971 40.9345
rfemur -10.8811 -1.41608 11.3255
rtibia 48.2979
rfoot -29.6294 -10.2319
rtoes -11.2205
lfemur -17.9951 -9.29279 -18.2602
ltibia 51.3168
lfoot -26.9667 -0.738129
ltoes 1.14877
95
root 1.1503 16.4265 0.21569 -40.478 -85.9347 31.7595
lowerback 23.4505 -2.27616 2.39877
upperback 5.01799 -2.93009 -2.05953
thorax -7.75792 -1.62226 -2.74103
lowerneck 2.13042 0.719998 0.45137
upperneck -13.1822 -0.0632068 -6.6011
head -4.28318 0.182753 -2.08915
rclavicle 3.83406e-014 1.35174e-014
rhumerus -204.65 -197.184 78.8653
rradius 75.1105
rwrist 21.9902
rhand -24.0724 2.85468
rfingers 7.12502
rthumb 2.40743 -27.1115
lclavicle 3.83406e-014 1.35174e-014
lhumerus -192.179 209.629 -79.3017
lradius 67.8355
lwrist 32.6434
lhand -31.1039 370.767
lfingers 7.12502
lthumb -4.38343 40.7012
rfemur -10.5315 -1.57721 11.1358
rtibia 48.7766
rfoot -29.425 -10.0035
rtoes -11.356
lfemur -17.482 -9.16021 -18.4113
ltibia 51.5011
lfoot -27.0957 -0.911008
ltoes 1.24101
96
root 1.12403 16.4084 0.23098 -40.3455 -85.8978 31.1671
lowerback 23.1398 -2.16595 2.49307
upperback 5.03919 -2.76578 -2.04563
thorax -7.5651 -1.54228 -2.83745
lowerneck 2.93213 0.52592 0.174076
upperneck -13.1673 -0.315258 -6.38886
head -4.42486 0.0816155 -1.96988
rclavicle 9.19379e-016 -1.59028e-015
rhumerus -201.74 -197.859 79.4424
rradius 75.7021
rwrist 22.5565
rhand -25.6665 2.84568
rfingers 7.12502
rthumb 0.867831 -27.1323
lclavicle 9.19379e-016 -1.59028e-015
lhumerus -189.735 210.129 -79.9017
lradius 68.8938
lwrist 32.2202
lhand -31.2163 370.76
lfingers 7.12502
lthumb -4.49197 40.6921
rfemur -10.2062 -1.74673 10.9755
rtibia 49.2654
rfoot -29.1953 -9.76829
rtoes -11.4422
lfemur -16.9923 -9.04742 -18.524
ltibia 51.6922
lfoot -27.2432 -1.07587
ltoes 1.26016
97
root 1.09808 16.3884 0.246922 -40.3583 -85.8721 30.7178
lowerback 22.8121 -2.05193 2.61375
upperback 5.06953 -2.59343 -2.05126
thorax -7.35413 -1.45844 -2.97179
lowerneck 3.67391 0.326016 -0.12398
upperneck -13.1043 -0.571069 -6.1279
head -4.54069 -0.0257316 -1.82978
rclavicle -1.36664e-014 -1.76918e-014
rhumerus -198.756 -198.436 80.1076
rradius 76.4098
rwrist 23.0183
rhand -27.103 2.72222
rfingers 7.12502
rthumb -0.519566 -27.2569
lclavicle -1.36664e-014 -1.76918e-014
lhumerus -187.307 210.63 -80.5477
lradius 69.9735
lwrist 31.8331
lhand -31.329 370.755
lfingers 7.12502
lthumb -4.60086 40.6852
rfemur -9.88902 -1.90266 10.8062
rtibia 49.7642
rfoot -29.0023 -9.55994
rtoes -11.6437
lfemur -16.4982 -8.9196 -18.6375
ltibia 51.8965
lfoot -27.3941 -1.25426
ltoes 1.3219
98
root 1.07243 16.3674 0.26326 -40.3899 -85.8526 30.3089
lowerback 22.4684 -1.93776 2.72916
upperback 5.08287 -2.42054 -2.04237
thorax -7.15163 -1.37323 -3.0859
lowerneck 4.46093 0.136939 -0.439713
upperneck -13.0843 -0.823588 -5.87247
head -4.67589 -0.13003 -1.68738
rclavicle -7.45443e-017 3.07122e-014
rhumerus -195.777 -198.97 80.8833
rradius 77.2536
rwrist 23.3698
rhand -28.3578 2.49112
rfingers 7.12502
rthumb -1.73145 -27.4816
lclavicle -7.45443e-017 3.07122e-014
lhumerus -184.911 211.043 -81.1768
lradius 70.9238
lwrist 31.4563
lhand -31.4597 370.543
lfingers 7.12502
lthumb -4.72706 40.4699
rfemur -9.59449 -2.08213 10.6205
rtibia 50.2638
rfoot -28.8477 -9.25657
rtoes -11.8319
lfemur -16.046 -8.80427 -18.7458
ltibia 52.1324
lfoot -27.5755 -1.41245
ltoes 1.37474
